<?xml version="1.0" standalone="no"?>
<!DOCTYPE svg PUBLIC "-//W3C//DTD SVG 20010904//EN"
 "http://www.w3.org/TR/2001/REC-SVG-20010904/DTD/svg10.dtd">
<svg version="1.0" xmlns="http://www.w3.org/2000/svg"
 width="512.000000pt" height="512.000000pt" viewBox="0 0 512.000000 512.000000"
 preserveAspectRatio="xMidYMid meet">

<g transform="translate(0.000000,512.000000) scale(0.100000,-0.100000)"
fill="#000000" stroke="none">
<path d="M2495 4430 c-22 -4 -52 -13 -67 -19 l-28 -11 0 -734 0 -734 -171 -99
c-119 -68 -177 -107 -190 -128 -17 -27 -19 -52 -19 -231 0 -149 -3 -204 -12
-212 -7 -5 -265 -168 -573 -362 -537 -337 -560 -353 -559 -380 3 -49 45 -122
105 -183 l57 -57 449 281 c246 155 505 317 575 361 l126 79 175 -90 c97 -50
185 -91 197 -91 11 0 104 42 205 94 l185 93 572 -358 571 -358 33 25 c18 14
45 42 60 61 31 41 74 138 73 168 0 16 -127 100 -577 381 l-577 361 -5 205 c-4
181 -7 208 -23 226 -10 11 -95 64 -188 118 l-169 98 0 736 0 737 -37 11 c-55
16 -142 22 -188 12z"/>
<path d="M2212 4296 c-147 -99 -1095 -778 -1169 -838 -126 -102 -175 -185
-192 -328 -14 -109 -15 -1446 -1 -1455 5 -3 149 81 319 187 l310 193 3 511 3
511 26 34 c20 25 131 94 408 253 l381 220 0 383 c0 211 -2 383 -3 383 -2 0
-41 -24 -85 -54z"/>
<path d="M2822 3968 l3 -381 365 -211 c201 -116 378 -219 394 -229 15 -10 36
-37 47 -60 17 -39 19 -73 19 -539 l0 -496 299 -186 c164 -102 306 -188 315
-192 15 -6 16 50 16 717 0 789 -2 809 -57 910 -15 28 -59 81 -98 118 -87 81
-1273 931 -1300 931 -3 0 -4 -172 -3 -382z"/>
<path d="M1492 1453 c-193 -120 -351 -221 -352 -225 0 -4 26 -21 58 -37 98
-49 1134 -517 1197 -541 92 -34 205 -38 296 -10 69 20 1032 451 1218 545 l84
42 -329 205 c-181 112 -342 212 -359 222 l-30 17 -170 -89 c-486 -254 -503
-262 -540 -262 -28 0 -115 41 -372 175 -185 96 -339 175 -343 175 -4 0 -165
-98 -358 -217z"/>
</g>
</svg>
